<?xml version="1.0" encoding="iso-8859-1"?>
<!-- Generator: Adobe Illustrator 19.2.1, SVG Export Plug-In . SVG Version: 6.00 Build 0)  -->
<svg version="1.1" xmlns="http://www.w3.org/2000/svg" xmlns:xlink="http://www.w3.org/1999/xlink" x="0px" y="0px"
	 viewBox="0 0 40 40" style="enable-background:new 0 0 40 40;" xml:space="preserve">
<g id="Layer_1">
	<g>
		<path style="fill:#BAE0BD;" d="M4,19.5c-0.827,0-1.5-0.673-1.5-1.5v-1c0-0.827,0.673-1.5,1.5-1.5h32c0.827,0,1.5,0.673,1.5,1.5v1
			c0,0.827-0.673,1.5-1.5,1.5H4z"/>
		<g>
			<path style="fill:#5E9C76;" d="M36,16c0.551,0,1,0.449,1,1v1c0,0.551-0.449,1-1,1H4c-0.551,0-1-0.449-1-1v-1c0-0.551,0.449-1,1-1
				H36 M36,15H4c-1.105,0-2,0.895-2,2v1c0,1.105,0.895,2,2,2h32c1.105,0,2-0.895,2-2v-1C38,15.895,37.105,15,36,15L36,15z"/>
		</g>
	</g>
	<g>
		<path style="fill:#66798F;" d="M36,28v6.5c0,0.828-0.672,1.5-1.5,1.5h-3c-0.828,0-1.5-0.672-1.5-1.5V28H36z"/>
	</g>
	<g>
		<path style="fill:#66798F;" d="M10,28v6.5c0,0.828-0.672,1.5-1.5,1.5h-3C4.672,36,4,35.328,4,34.5V28H10z"/>
	</g>
	<g>
		<g>
			<path style="fill:#BAE0BD;" d="M7,32.536c-1.378,0-2.5-1.122-2.5-2.5V18.917l1.037-2.626l2.357-8.928
				C8.183,6.266,9.177,5.5,10.312,5.5h19.377c1.134,0,2.128,0.766,2.417,1.863l2.339,8.872l1.055,2.682v11.12
				c0,1.378-1.122,2.5-2.5,2.5H7z"/>
		</g>
		<g>
			<path style="fill:#5E9C76;" d="M29.688,6c0.907,0,1.703,0.613,1.934,1.49l2.339,8.872l0.015,0.057l0.022,0.055L35,19.012v11.024
				c0,1.103-0.897,2-2,2H7c-1.103,0-2-0.897-2-2V19.012l1.002-2.537l0.022-0.055l0.015-0.057L8.378,7.49
				C8.609,6.613,9.404,6,10.312,6H29.688 M29.688,5H10.312C8.949,5,7.758,5.918,7.411,7.235l-2.339,8.872L4,18.821v11.214
				c0,1.657,1.343,3,3,3h26c1.657,0,3-1.343,3-3V18.821l-1.071-2.714l-2.339-8.872C32.242,5.918,31.051,5,29.688,5L29.688,5z"/>
		</g>
	</g>
	<circle style="fill:#FFFFFF;" cx="31" cy="22" r="2"/>
	<circle style="fill:#FFFFFF;" cx="9" cy="22" r="2"/>
	<g>
		<path style="fill:#C8D1DB;" d="M12.599,32.5l1.048-5.769c0.13-0.713,0.751-1.231,1.476-1.231h9.753
			c0.725,0,1.346,0.518,1.476,1.232l1.048,5.768H12.599z"/>
		<g>
			<path style="fill:#66798F;" d="M24.876,26c0.484,0,0.897,0.345,0.984,0.821L26.802,32H13.198l0.942-5.179
				C14.226,26.345,14.64,26,15.124,26H24.876 M24.876,25h-9.753c-0.967,0-1.795,0.691-1.968,1.642L12,33h16l-1.156-6.358
				C26.671,25.691,25.843,25,24.876,25L24.876,25z"/>
		</g>
	</g>
	<rect x="4" y="16" style="fill:#BAE0BD;" width="32" height="2"/>
	<g>
		<path style="fill:#C2E8FF;" d="M5.749,15.5l2.146-8.137C8.183,6.266,9.177,5.5,10.312,5.5h19.377c1.134,0,2.128,0.766,2.417,1.863
			l2.146,8.137H5.749z"/>
		<g>
			<path style="fill:#5E9C76;" d="M29.688,6c0.907,0,1.703,0.613,1.934,1.49l1.98,7.51H6.398l1.98-7.51
				C8.609,6.613,9.404,6,10.312,6H29.688 M29.688,5H10.312C8.949,5,7.758,5.918,7.411,7.235L5.1,16H34.9l-2.311-8.765
				C32.242,5.918,31.051,5,29.688,5L29.688,5z"/>
		</g>
	</g>
	<circle style="fill:#8BB7F0;" cx="27" cy="11" r="3"/>
	<circle style="fill:#8BB7F0;" cx="20" cy="9" r="2"/>
	<circle style="fill:#8BB7F0;" cx="13" cy="11" r="3"/>
</g>
<g id="Layer_2">
</g>
</svg>
